# xmcd CD database file
#
# Track frame offsets:
#	165
#	20884
#	41556
#	55731
#	71076
#	86834
#	102822
#	120800
#	137454
#	152926
#	169236
#	184332
#	199060
#	211773
#	225026
#	241520
#	257847
#	276276
#	291587
#	308701
#
# Disc length: 4245 seconds
#
# Revision: 0
# Processed by: cddbd v1.4PL0 Copyright (c) Steve Scherf et al.
# Submitted via: CDex 1.40Beta8
#
DISCID=17109314
DTITLE=Teixeirinha - Dose Dupla (Canta Meu Povo - Quem é Você Agora...)
DYEAR=1900
DGENRE=Country
TTITLE0=Quem é Você Agora
TTITLE1=Filha Reconhecida
TTITLE2=Não Chora Amor
TTITLE3=A Morte Não Marca Hora
TTITLE4=Eu Te Amo Moreninha
TTITLE5=Eu Não Devia, Mas...
TTITLE6=Amor Desfeito
TTITLE7=Vá Embora
TTITLE8=Cheio de Mágoa
TTITLE9=Noite de Chuva
TTITLE10=Canta Meu Povo
TTITLE11=Meu Nome é Corisco
TTITLE12=A Ordem é Essa
TTITLE13=Sou Quem Sou
TTITLE14=Nossa Árdua Carreira
TTITLE15=Marcelita
TTITLE16=Quem Planta o Bem, Colhe o Bem
TTITLE17=Fronteira Gaúcha
TTITLE18=Eu Quisera
TTITLE19=No Braço do meu pinho
EXTD=ID3G: 2
EXTT0=
EXTT1=
EXTT2=
EXTT3=
EXTT4=
EXTT5=
EXTT6=
EXTT7=
EXTT8=
EXTT9=
EXTT10=
EXTT11=
EXTT12=
EXTT13=
EXTT14=
EXTT15=
EXTT16=
EXTT17=
EXTT18=
EXTT19=
PLAYORDER=
